<?xml version="1.0" encoding="UTF-8"?>
<!-- Generator: Adobe Illustrator 16.0.0, SVG Export Plug-In . SVG Version: 6.00 Build 0)  -->
<svg xmlns="http://www.w3.org/2000/svg" xmlns:xlink="http://www.w3.org/1999/xlink" version="1.1" id="Calque_1" x="0px" y="0px" width="608.126px" height="222.401px" viewBox="0 0 608.126 222.401" xml:space="preserve">
<g>
	<path fill="#27AAE1" d="M492.347,169.429c-13.691,0-23.217-1.734-30.062-4.51l6.104-12.259c4.018,1.619,10.863,3.354,19.941,3.354   c11.012,0,18.006-4.395,18.006-11.912c0-10.524-12.947-12.953-25.002-12.721v-9.483c14.586-1.157,22.77-5.898,22.77-12.837   c0-5.898-5.803-8.789-14.285-8.789c-7.74,0-14.734,1.503-19.049,3.123l-5.656-11.333c5.953-2.313,15.924-4.51,28.574-4.51   c20.686,0,33.633,7.517,33.633,19.429c0,8.789-9.375,14.225-16.221,16.422v0.231c10.863,3.007,20.387,8.674,20.387,20.585   C531.485,159.252,515.413,169.429,492.347,169.429z"></path>
	<path fill="#27AAE1" d="M573.005,169.429c-27.828,0-35.121-23.129-35.121-40.938s7.293-40.939,35.121-40.939   c27.83,0,35.121,23.129,35.121,40.939S600.835,169.429,573.005,169.429z M573.005,98.77c-11.012,0-12.947,14.34-12.947,29.49   c0,15.265,1.936,29.259,12.947,29.259c11.014,0,12.947-13.994,12.947-29.259C585.952,113.11,584.019,98.77,573.005,98.77z"></path>
</g>
<polyline fill="#005DAA" points="89.302,168.128 59.484,167.989 60.725,125.476 49.635,104.533 28.687,74.332 36.693,69.419   57.639,90.976 73.653,33.065 79.819,34.91 74.897,84.822 100.761,36.757 107.545,40.476 89.677,87.9 123.554,57.096 127.87,63.268   100.761,92.819 130.338,84.822 130.95,91.591 106.303,100.833 92.136,129.784 89.302,168.128 "></polyline>
<path fill="#EE3124" d="M55.524,67.984c0,0-28.919-8.443-22.783-43.725C32.742,24.259,66.854,34.899,55.524,67.984"></path>
<path fill="#EE3124" d="M87.099,43.214c0,0-8.714-16.304,7.711-28.07C94.81,15.145,104.814,34.645,87.099,43.214"></path>
<path fill="#EE3124" d="M134.505,124.191c0,0-2.439-18.431-23.23-17.216C111.275,106.975,114.547,128.756,134.505,124.191"></path>
<path fill="#8DC63F" d="M31.938,61.966c0,0-6.558-17.33-26.484-11.052C5.454,50.915,13.566,71.298,31.938,61.966"></path>
<path fill="#27AAE1" d="M111.307,51.461c0,0,3.006-23.66,28.584-22.1C139.892,29.362,135.873,57.321,111.307,51.461"></path>
<path fill="#27AAE1" d="M61.935,30.78c0,0-15.654-9.057-7.039-28.747C54.896,2.033,73.263,13.104,61.935,30.78"></path>
<path fill="#8DC63F" d="M110.61,19.37c0,0-6.017-11.242,5.321-19.37C115.932,0,122.846,13.465,110.61,19.37"></path>
<path fill="#005DAA" d="M338.499,168.128l-1.492-45.792c-0.161-3.149,0.14-8.439,0.14-10.465h-0.301  c-0.446,2.581-2.082,7.432-4.188,11.703l-21.534,44.554h-16.614l-21.691-44.669c-1.792-3.617-3.435-8.778-3.881-11.134h-0.295  c0.14,2.464,0.295,6.402,0.14,9.552l-1.786,46.251h-20.352l3.59-79.446h26.487l23.173,48.168c2.406,4.845,3.748,8.786,4.208,11.026  h0.291c0.599-2.351,1.934-6.073,4.182-11.026l21.695-48.168h26.623l4.191,79.446H338.499"></path>
<path fill="#005DAA" d="M165.35,121.152c-9.024,2.498-15.065,6.309-18.449,11.535c-2.267,3.488-3.435,7.688-3.438,12.896  l0.025,1.029c0.216,6.783,3.389,12.619,10.528,17.073c7.148,4.443,18.39,7.305,34.312,7.286c0.642,0,1.28-0.01,1.933-0.014  c16.997-0.236,28.525-2.257,37.773-5.599v-48.204c-0.03-10.903-3.041-17.509-9.054-21.83c-6.046-4.321-15.674-6.319-28.951-6.585  c-6.957-0.169-15.164-0.21-22.08-0.21c-5.698,0-10.505,0.022-13.023,0.046v14.401l28.083-0.024  c5.621,0.097,9.931,0.437,13.351,1.295c3.39,0.862,6,2.337,7.665,4.71c1.109,1.578,1.759,3.45,2.104,5.575l0.034,0.15v2.902  l-1.878-0.031c-1.146-0.007-2.289-0.023-3.395-0.023h-0.074C186.203,117.529,174.337,118.658,165.35,121.152 M204.32,133.544  l1.852,0.015l-0.079,22.417l-1.608,0.208c-0.041,0-6.762,0.908-12.727,0.908c-5.109,0-9.528-0.341-13.199-1.195  c-3.645-0.876-6.615-2.297-8.548-4.698c-1.284-1.598-2-3.593-2.061-5.792l-0.005-0.374c-0.027-2.678,1.141-5.029,3.027-6.614  c1.889-1.598,4.379-2.592,7.267-3.285c5.802-1.4,13.417-1.615,21.739-1.615C201.414,133.52,202.857,133.52,204.32,133.544"></path>
<path fill="#005DAA" d="M439.224,117.752c0,0-24.486,0.076-32.682,0.076h-0.084c-1.105,0-2.247,0.017-3.395,0.017l-1.873,0.027  v-2.901l0.021-0.141c0.362-2.131,1.009-3.996,2.124-5.558c1.658-2.393,4.265-3.882,7.656-4.72c3.417-0.874,7.724-1.198,13.352-1.297  l28.081,0.018V88.877c-2.528-0.01-7.326-0.043-13.018-0.043c-6.913,0-15.13,0.033-22.084,0.19  c-13.284,0.275-22.898,2.272-28.945,6.607c-6.019,4.322-9.021,10.928-9.07,21.814v50.719h21.915l0.04-11.877l-0.083-22.43  l38.045-0.123V117.752"></path>
<path fill="#27AAE1" d="M41.164,105.7c0,0-17.783-3.653-23.014,17.078C18.15,122.778,39.287,126.722,41.164,105.7"></path>
<path fill="#EE3124" d="M34.453,90.529c0,0-16.772-12.299-34.453,6.901C0,97.431,20.271,111.775,34.453,90.529"></path>
<path fill="#8DC63F" d="M149.603,66.65c0,0-3.279,9.011-11.228,12.125c-7.946,3.113-14.255-1.555-14.255-1.555  S130.185,60.258,149.603,66.65z"></path>
<path fill="#005DAA" d="M170.488,200.51l-1.083-2.795h-5.043l-1.083,2.795h-2.955l5.279-12.54h2.679l5.24,12.54H170.488z   M167.573,193.058c-0.276-0.734-0.551-1.487-0.689-1.952c-0.138,0.465-0.414,1.218-0.689,1.952l-0.886,2.275h3.152L167.573,193.058z  "></path>
<path fill="#005DAA" d="M180.375,200.708c-2.305,0-4.314-0.878-5.358-2.275l1.99-1.612c0.965,1.021,2.206,1.434,3.526,1.434  c1.635,0,2.403-0.412,2.403-1.361c0-0.807-0.473-1.165-3.073-1.702c-2.542-0.537-4.314-1.272-4.314-3.744  c0-2.275,2.206-3.672,4.924-3.672c2.147,0,3.723,0.734,5.023,1.97l-1.99,1.756c-0.886-0.824-1.871-1.29-3.132-1.29  c-1.478,0-1.97,0.573-1.97,1.129c0,0.788,0.591,1.039,2.778,1.505s4.609,1.146,4.609,3.869  C185.792,199.095,184.137,200.708,180.375,200.708z"></path>
<path fill="#005DAA" d="M193,200.708c-2.305,0-4.314-0.878-5.358-2.275l1.99-1.612c0.965,1.021,2.206,1.434,3.526,1.434  c1.635,0,2.403-0.412,2.403-1.361c0-0.807-0.473-1.165-3.073-1.702c-2.542-0.537-4.314-1.272-4.314-3.744  c0-2.275,2.206-3.672,4.924-3.672c2.147,0,3.723,0.734,5.023,1.97l-1.99,1.756c-0.886-0.824-1.871-1.29-3.132-1.29  c-1.478,0-1.97,0.573-1.97,1.129c0,0.788,0.591,1.039,2.778,1.505s4.609,1.146,4.609,3.869  C198.417,199.095,196.763,200.708,193,200.708z"></path>
<path fill="#005DAA" d="M206.236,200.708c-3.605,0-6.067-2.4-6.067-6.449s2.501-6.484,6.106-6.484c3.585,0,6.048,2.4,6.048,6.448  C212.323,198.271,209.821,200.708,206.236,200.708z M206.216,190.263c-1.931,0-3.211,1.416-3.211,3.959  c0,2.544,1.339,3.995,3.27,3.995s3.211-1.415,3.211-3.959S208.147,190.263,206.216,190.263z"></path>
<path fill="#005DAA" d="M222.583,191.625c-0.492-0.859-1.28-1.361-2.521-1.361c-2.068,0-3.25,1.648-3.25,3.978  c0,2.257,1.202,3.977,3.27,3.977c1.241,0,1.97-0.483,2.699-1.595l2.324,1.254c-0.945,1.773-2.6,2.831-5.102,2.831  c-3.604,0-6.028-2.508-6.028-6.467c0-3.816,2.521-6.467,6.126-6.467c2.601,0,4.176,1.146,5.043,2.776L222.583,191.625z"></path>
<path fill="#005DAA" d="M227.703,200.51v-12.54h2.758v12.54H227.703z"></path>
<path fill="#005DAA" d="M242.989,200.51l-1.083-2.795h-5.043l-1.083,2.795h-2.955l5.279-12.54h2.679l5.24,12.54H242.989z   M240.073,193.058c-0.276-0.734-0.551-1.487-0.689-1.952c-0.138,0.465-0.414,1.218-0.689,1.952l-0.886,2.275h3.152L240.073,193.058z  "></path>
<path fill="#005DAA" d="M254.018,190.443v10.067h-2.758v-10.067h-3.96v-2.473h10.677v2.473H254.018z"></path>
<path fill="#005DAA" d="M260.438,200.51v-12.54h2.758v12.54H260.438z"></path>
<path fill="#005DAA" d="M271.842,200.708c-3.604,0-6.067-2.4-6.067-6.449s2.501-6.484,6.107-6.484c3.585,0,6.047,2.4,6.047,6.448  C277.929,198.271,275.427,200.708,271.842,200.708z M271.822,190.263c-1.931,0-3.211,1.416-3.211,3.959  c0,2.544,1.339,3.995,3.271,3.995c1.93,0,3.211-1.415,3.211-3.959S273.753,190.263,271.822,190.263z"></path>
<path fill="#005DAA" d="M289.018,200.51l-5.062-6.843c-0.335-0.466-0.788-1.093-0.966-1.415c0,0.465,0.039,2.042,0.039,2.74v5.518  h-2.718v-12.54h2.64l4.885,6.629c0.336,0.465,0.789,1.093,0.966,1.415c0-0.466-0.04-2.042-0.04-2.741v-5.303h2.719v12.54H289.018z"></path>
<path fill="#005DAA" d="M304.063,200.51h-4.117v-12.54h4.314c3.939,0,6.855,1.685,6.855,6.271  C311.116,198.647,307.61,200.51,304.063,200.51z M304.162,190.407h-1.458v7.667h1.359c2.896,0,4.216-1.54,4.216-3.833  C308.279,191.679,307.077,190.407,304.162,190.407z"></path>
<path fill="#005DAA" d="M313.478,200.51v-12.54h9.574v2.454h-6.816v2.168h3.959v2.437h-3.959v3.027h7.111v2.454H313.478z"></path>
<path fill="#005DAA" d="M330.575,200.708c-2.305,0-4.314-0.878-5.359-2.275l1.99-1.612c0.965,1.021,2.206,1.434,3.526,1.434  c1.635,0,2.403-0.412,2.403-1.361c0-0.807-0.473-1.165-3.073-1.702c-2.542-0.537-4.313-1.272-4.313-3.744  c0-2.275,2.205-3.672,4.924-3.672c2.147,0,3.723,0.734,5.023,1.97l-1.99,1.756c-0.886-0.824-1.871-1.29-3.131-1.29  c-1.479,0-1.971,0.573-1.971,1.129c0,0.788,0.592,1.039,2.777,1.505c2.188,0.466,4.609,1.146,4.609,3.869  C335.991,199.095,334.337,200.708,330.575,200.708z"></path>
<path fill="#005DAA" d="M353.974,200.51v-4.604c0-0.681,0.039-2.275,0.039-2.759c-0.197,0.466-0.61,1.361-0.965,2.078l-2.797,5.57  l-2.798-5.57c-0.354-0.717-0.769-1.612-0.966-2.078c0,0.483,0.04,2.078,0.04,2.759v4.604h-2.698v-12.54h2.658l2.877,5.679  c0.354,0.699,0.768,1.648,0.945,2.097c0.178-0.466,0.571-1.38,0.926-2.097l2.777-5.679h2.719v12.54H353.974z"></path>
<path fill="#005DAA" d="M369.062,200.51l-1.084-2.795h-5.043l-1.083,2.795h-2.955l5.279-12.54h2.679l5.24,12.54H369.062z   M366.146,193.058c-0.275-0.734-0.552-1.487-0.689-1.952c-0.138,0.465-0.414,1.218-0.689,1.952l-0.887,2.275h3.152L366.146,193.058z  "></path>
<path fill="#005DAA" d="M374.455,200.51v-12.54h2.758v12.54H374.455z"></path>
<path fill="#005DAA" d="M388.559,200.51l-2.462-4.515h-2.777v4.515h-2.759v-12.54h6.423c2.6,0,4.747,1.308,4.747,3.978  c0,1.881-0.887,3.062-2.64,3.69l2.64,4.872H388.559z M386.924,190.407h-3.604v3.225h3.604c1.28,0,1.97-0.537,1.97-1.63  C388.894,190.873,388.146,190.407,386.924,190.407z"></path>
<path fill="#005DAA" d="M394.229,200.51v-12.54h9.574v2.454h-6.815v2.168h3.959v2.437h-3.959v3.027h7.111v2.454H394.229z"></path>
<path fill="#005DAA" d="M411.325,200.708c-2.305,0-4.313-0.878-5.357-2.275l1.989-1.612c0.965,1.021,2.206,1.434,3.526,1.434  c1.635,0,2.403-0.412,2.403-1.361c0-0.807-0.473-1.165-3.073-1.702c-2.541-0.537-4.314-1.272-4.314-3.744  c0-2.275,2.207-3.672,4.925-3.672c2.147,0,3.724,0.734,5.023,1.97l-1.989,1.756c-0.887-0.824-1.872-1.29-3.133-1.29  c-1.478,0-1.97,0.573-1.97,1.129c0,0.788,0.591,1.039,2.777,1.505s4.61,1.146,4.61,3.869  C416.743,199.095,415.088,200.708,411.325,200.708z"></path>
<rect x="426.728" y="187.976" fill="#005DAA" width="8.532" height="12.56"></rect>
<rect x="443.791" y="187.976" fill="#EE3124" width="8.53" height="12.56"></rect>
<g>
	<path fill="#005DAA" d="M86.487,221.857V209.36h9.515v2.446h-6.773v2.16h3.935v2.428h-3.935v3.017h7.066v2.446H86.487z"></path>
	<path fill="#005DAA" d="M105.01,211.824v10.033h-2.741v-10.033h-3.935v-2.464h10.61v2.464H105.01z"></path>
	<path fill="#005DAA" d="M121.358,221.857h-4.092V209.36h4.288c3.915,0,6.812,1.679,6.812,6.249   C128.367,220,124.883,221.857,121.358,221.857z M121.456,211.788h-1.448v7.642h1.351c2.878,0,4.189-1.535,4.189-3.82   C125.548,213.055,124.354,211.788,121.456,211.788z"></path>
	<path fill="#005DAA" d="M131.109,221.857V209.36h9.515v2.446h-6.773v2.16h3.935v2.428h-3.935v3.017h7.067v2.446H131.109z"></path>
	<path fill="#005DAA" d="M148.204,222.053c-2.29,0-4.288-0.875-5.325-2.268l1.978-1.606c0.959,1.018,2.192,1.429,3.504,1.429   c1.625,0,2.389-0.411,2.389-1.357c0-0.803-0.47-1.16-3.054-1.696c-2.525-0.535-4.287-1.268-4.287-3.73   c0-2.268,2.191-3.66,4.894-3.66c2.134,0,3.7,0.732,4.992,1.964l-1.978,1.75c-0.881-0.821-1.859-1.286-3.112-1.286   c-1.468,0-1.958,0.571-1.958,1.125c0,0.785,0.588,1.035,2.761,1.5c2.173,0.464,4.581,1.143,4.581,3.855   C153.588,220.447,151.943,222.053,148.204,222.053z"></path>
</g>
<g>
	<path fill="#005DAA" d="M168.673,217.684h-3.015v4.428h-2.741v-12.497h5.991c2.584,0,4.718,1.304,4.718,3.964   C173.626,216.47,171.512,217.684,168.673,217.684z M168.81,212.042h-3.151v3.214h3.19c1.272,0,1.958-0.535,1.958-1.625   C170.807,212.542,170.023,212.042,168.81,212.042z"></path>
	<path fill="#005DAA" d="M184.18,222.112l-2.447-4.499h-2.76v4.499h-2.741v-12.497h6.382c2.585,0,4.719,1.304,4.719,3.964   c0,1.874-0.881,3.053-2.623,3.678l2.623,4.855H184.18z M182.555,212.042h-3.582v3.214h3.582c1.272,0,1.958-0.535,1.958-1.625   C184.513,212.507,183.769,212.042,182.555,212.042z"></path>
	<path fill="#005DAA" d="M190.211,222.112v-12.497h9.515v2.446h-6.773v2.16h3.935v2.428h-3.935v3.017h7.067v2.446H190.211z    M195.731,208.811h-2.29l1.703-2.856h3.426L195.731,208.811z"></path>
	<path fill="#005DAA" d="M207.597,222.308c-2.29,0-4.287-0.875-5.324-2.268l1.977-1.606c0.96,1.018,2.193,1.429,3.505,1.429   c1.625,0,2.388-0.411,2.388-1.357c0-0.803-0.47-1.16-3.054-1.696c-2.525-0.535-4.287-1.268-4.287-3.73   c0-2.268,2.192-3.66,4.895-3.66c2.134,0,3.699,0.732,4.992,1.964l-1.978,1.75c-0.881-0.821-1.86-1.286-3.113-1.286   c-1.468,0-1.957,0.571-1.957,1.125c0,0.785,0.587,1.035,2.76,1.5c2.173,0.464,4.581,1.143,4.581,3.855   C212.98,220.702,211.336,222.308,207.597,222.308z"></path>
	<path fill="#005DAA" d="M216.076,222.112v-12.497h2.74v12.497H216.076z"></path>
	<path fill="#005DAA" d="M226.629,222.112h-4.092v-12.497h4.287c3.916,0,6.813,1.679,6.813,6.249   C233.638,220.255,230.152,222.112,226.629,222.112z M226.727,212.042h-1.448v7.642h1.351c2.878,0,4.189-1.535,4.189-3.82   C230.818,213.31,229.624,212.042,226.727,212.042z"></path>
	<path fill="#005DAA" d="M236.38,222.112v-12.497h9.515v2.446h-6.773v2.16h3.935v2.428h-3.935v3.017h7.067v2.446H236.38z"></path>
	<path fill="#005DAA" d="M257.761,222.112l-5.031-6.819c-0.333-0.465-0.783-1.09-0.959-1.411c0,0.465,0.039,2.035,0.039,2.731v5.499   h-2.702v-12.497h2.623l4.855,6.605c0.333,0.464,0.783,1.089,0.959,1.41c0-0.464-0.039-2.035-0.039-2.731v-5.284h2.702v12.497   H257.761z"></path>
	<path fill="#005DAA" d="M269.528,212.079v10.033h-2.74v-10.033h-3.936v-2.464h10.611v2.464H269.528z"></path>
	<path fill="#005DAA" d="M280.26,222.308c-2.29,0-4.287-0.875-5.324-2.268l1.977-1.606c0.96,1.018,2.193,1.429,3.505,1.429   c1.625,0,2.388-0.411,2.388-1.357c0-0.803-0.47-1.16-3.054-1.696c-2.525-0.535-4.287-1.268-4.287-3.73   c0-2.268,2.192-3.66,4.895-3.66c2.134,0,3.699,0.732,4.992,1.964l-1.978,1.75c-0.881-0.821-1.86-1.286-3.113-1.286   c-1.468,0-1.957,0.571-1.957,1.125c0,0.785,0.587,1.035,2.76,1.5c2.174,0.464,4.581,1.143,4.581,3.855   C285.644,220.702,283.999,222.308,280.26,222.308z"></path>
</g>
<g>
	<path fill="#005DAA" d="M299.313,222.205h-4.092v-12.497h4.287c3.916,0,6.814,1.679,6.814,6.249   C306.323,220.348,302.837,222.205,299.313,222.205z M299.411,212.135h-1.447v7.642h1.35c2.879,0,4.189-1.535,4.189-3.82   C303.503,213.403,302.31,212.135,299.411,212.135z"></path>
	<path fill="#005DAA" d="M310.356,214.724h-1.859l0.275-5.017h3.189L310.356,214.724z"></path>
	<path fill="#005DAA" d="M314.567,222.205v-12.497h9.514v2.446h-6.773v2.16h3.936v2.428h-3.936v3.017h7.068v2.446H314.567z"></path>
	<path fill="#005DAA" d="M333.05,217.777h-3.014v4.428h-2.742v-12.497h5.992c2.584,0,4.717,1.304,4.717,3.964   C338.003,216.563,335.89,217.777,333.05,217.777z M333.187,212.135h-3.15v3.214h3.189c1.273,0,1.959-0.535,1.959-1.625   C335.185,212.635,334.401,212.135,333.187,212.135z"></path>
	<path fill="#005DAA" d="M348.438,213.349c-0.488-0.856-1.271-1.356-2.506-1.356c-2.055,0-3.23,1.643-3.23,3.964   c0,2.249,1.195,3.963,3.25,3.963c1.234,0,1.959-0.482,2.682-1.589l2.311,1.25c-0.939,1.767-2.584,2.82-5.07,2.82   c-3.582,0-5.99-2.499-5.99-6.444c0-3.803,2.506-6.445,6.088-6.445c2.584,0,4.15,1.143,5.012,2.768L348.438,213.349z"></path>
	<path fill="#005DAA" d="M353.923,222.205v-12.497h2.74v12.497H353.923z"></path>
</g>
<g>
	<path fill="#005DAA" d="M370.892,222.143h-4.117v-12.54h4.314c3.939,0,6.855,1.685,6.855,6.271   C377.944,220.28,374.438,222.143,370.892,222.143z M370.99,212.04h-1.457v7.667h1.358c2.896,0,4.216-1.54,4.216-3.833   C375.107,213.312,373.906,212.04,370.99,212.04z"></path>
	<path fill="#005DAA" d="M385.782,222.34c-3.329,0-5.574-2.042-5.574-5.697v-7.04h2.758v7.005c0,2.006,1.063,3.278,2.816,3.278   c1.754,0,2.837-1.236,2.837-3.243v-7.04h2.758v7.005C391.377,220.245,389.289,222.34,385.782,222.34z"></path>
	<path fill="#005DAA" d="M405.045,222.34c-3.605,0-6.028-2.508-6.028-6.467c0-3.816,2.521-6.467,6.127-6.467   c2.816,0,4.313,1.2,5.22,3.135l-2.62,0.985c-0.512-0.932-1.143-1.631-2.64-1.631c-2.068,0-3.25,1.648-3.25,3.978   c0,2.311,1.201,4.013,3.27,4.013c1.892,0,2.542-0.807,2.699-1.899h-2.187v-2.347h4.944v1.648   C410.58,220.513,408.236,222.34,405.045,222.34z"></path>
	<path fill="#005DAA" d="M422.28,222.143l-1.084-2.795h-5.043l-1.083,2.795h-2.955l5.279-12.54h2.679l5.24,12.54H422.28z    M419.364,214.691c-0.275-0.734-0.552-1.487-0.689-1.952c-0.138,0.465-0.414,1.218-0.689,1.952l-0.887,2.275h3.152L419.364,214.691   z"></path>
	<path fill="#005DAA" d="M435.476,222.143l-2.462-4.515h-2.777v4.515h-2.759v-12.54h6.422c2.601,0,4.748,1.308,4.748,3.978   c0,1.881-0.887,3.062-2.64,3.69l2.64,4.872H435.476z M433.841,212.04h-3.604v3.225h3.604c1.28,0,1.97-0.537,1.97-1.63   C435.811,212.505,435.062,212.04,433.841,212.04z"></path>
	<path fill="#005DAA" d="M445.263,222.143h-4.117v-12.54h4.314c3.939,0,6.855,1.685,6.855,6.271   C452.315,220.28,448.809,222.143,445.263,222.143z M445.361,212.04h-1.457v7.667h1.358c2.896,0,4.216-1.54,4.216-3.833   C449.479,213.312,448.277,212.04,445.361,212.04z"></path>
</g>
</svg>
