<?xml version="1.0" encoding="utf-8"?>
<!-- Generator: Adobe Illustrator 16.0.0, SVG Export Plug-In . SVG Version: 6.00 Build 0)  -->
<!DOCTYPE svg PUBLIC "-//W3C//DTD SVG 1.1//EN" "http://www.w3.org/Graphics/SVG/1.1/DTD/svg11.dtd">
<svg version="1.1" id="Layer_1" xmlns="http://www.w3.org/2000/svg" xmlns:xlink="http://www.w3.org/1999/xlink" x="0px" y="0px"
	 width="111px" height="59.678px" viewBox="0 0 111 59.678" enable-background="new 0 0 111 59.678" xml:space="preserve">
<g>
	<path d="M49.116,40.09c-0.57-1.048-1.424-1.993-2.563-2.837c-1.14-0.843-2.421-1.521-3.845-2.033
		c-1.424-0.513-2.911-0.895-4.46-1.146c-4.603-0.684-8.898-2.176-12.886-4.478c-0.342-0.182-0.707-0.569-1.094-1.162
		c-0.388-0.592-0.581-1.162-0.581-1.709c0-2.005,0.336-4.016,1.008-6.033c0.672-2.017,1.532-3.594,2.581-4.734
		c1.686-1.891,4.722-3.543,9.109-4.956c4.386-1.413,9.325-2.119,14.817-2.119c3.281,0,5.816,0.251,7.605,0.752
		c1.788,0.501,2.683,1.276,2.683,2.324c0,1.709-0.234,3.031-0.7,3.965c-0.468,0.935-0.97,1.555-1.504,1.863
		c-0.536,0.308-1.477,0.724-2.82,1.248c-1.436,0.501-2.683,1.025-3.743,1.572s-1.965,1.071-2.717,1.572
		c-0.752,0.501-1.219,0.752-1.401,0.752c-0.228,0-0.342-0.091-0.342-0.273c0-0.387,0.404-0.974,1.213-1.76
		c0.809-0.786,1.806-1.475,2.991-2.068c1.253-0.661,1.88-1.082,1.88-1.265c0-0.296-0.695-0.444-2.085-0.444
		c-4.216,0-8.112,0.376-11.689,1.128c-3.578,0.752-6.397,1.743-8.459,2.974c-2.062,1.23-3.093,2.484-3.093,3.76
		c0,0.798,0.427,1.362,1.282,1.692c0.854,0.331,2.74,0.883,5.657,1.658c2.917,0.775,5.525,1.664,7.827,2.666
		c3.304,1.413,5.753,2.883,7.349,4.409c1.595,1.527,2.393,3.236,2.393,5.127c0,1.299-0.313,2.604-0.94,3.914
		c-0.627,1.311-1.544,2.512-2.751,3.605c-1.208,1.094-2.598,1.993-4.17,2.7c-1.345,0.569-3.037,1.104-5.076,1.606
		c-2.04,0.501-4.25,0.894-6.631,1.18c-2.381,0.284-4.654,0.427-6.819,0.427c-3.988,0-7.195-0.376-9.622-1.128
		s-3.64-1.892-3.64-3.418c0-0.684,0.41-1.748,1.23-3.195s1.789-2.421,2.905-2.923c0.979-0.387,1.925-0.609,2.837-0.667
		c0.911-0.056,1.367,0.052,1.367,0.325c0,0.068-0.034,0.137-0.103,0.205s-0.148,0.126-0.239,0.171
		c-0.091,0.046-0.183,0.092-0.273,0.137c-0.456,0.183-0.826,0.324-1.111,0.428c-0.285,0.102-0.513,0.205-0.684,0.307
		c-0.171,0.104-0.256,0.246-0.256,0.428c0,0.479,2.358,0.718,7.075,0.718c4.102,0,7.462-0.147,10.083-0.444
		c2.62-0.296,4.933-0.831,6.938-1.606C45.652,42.528,47.476,41.457,49.116,40.09z"/>
	<path d="M60.814,50.069c-0.287,0-0.533-0.11-0.736-0.33s-0.305-0.524-0.305-0.914c0-0.305,0.182-0.851,0.547-1.638
		c0.363-0.787,0.82-1.489,1.371-2.107c0.549-0.618,1.121-0.927,1.713-0.927c0.729,0,1.092,0.432,1.092,1.295
		c0,0.474-0.193,1.088-0.584,1.841c-0.389,0.753-0.871,1.405-1.447,1.955C61.891,49.794,61.34,50.069,60.814,50.069z"/>
	<path d="M77.396,32.819l-4.199,2.207c-0.651,0.325-1.087,0.488-1.309,0.488c-0.403,0-0.7-0.127-0.889-0.381
		s-0.283-0.647-0.283-1.182c0-0.612,0.13-1.318,0.391-2.119s0.56-1.39,0.898-1.768c0.352-0.391,1.175-0.928,2.471-1.611
		s2.854-1.37,4.678-2.061c1.823-0.69,3.724-1.263,5.703-1.719c1.979-0.456,3.789-0.684,5.43-0.684c1.146,0,1.992,0.183,2.539,0.547
		c0.547,0.365,0.82,1.328,0.82,2.891c0,0.847-0.29,1.787-0.869,2.822s-1.276,2.041-2.09,3.018s-2.321,2.708-4.521,5.195
		c1.172-0.183,2.031-0.3,2.578-0.352s1.569-0.163,3.066-0.332c1.731-2.5,3.132-4.495,4.199-5.986
		c1.067-1.491,1.973-2.728,2.715-3.711c0.742-0.983,1.185-1.546,1.328-1.689c0.261-0.299,0.479-0.413,0.654-0.342
		c0.176,0.072,0.264,0.342,0.264,0.811c0,0.534-0.056,0.97-0.166,1.309c-0.11,0.339-0.283,0.674-0.518,1.006
		s-0.358,0.511-0.371,0.537c-0.339,0.56-0.827,1.292-1.465,2.197c-0.638,0.905-1.263,1.8-1.875,2.686
		c-0.612,0.886-1.309,1.934-2.09,3.145c1.458,0.052,2.897,0.241,4.316,0.566l-3.516,4.766c-0.964-0.13-2.246-0.195-3.848-0.195
		c-0.391,0.781-0.693,1.394-0.908,1.836s-0.397,0.862-0.547,1.26s-0.225,0.765-0.225,1.104c0,0.208,0.062,0.485,0.186,0.83
		s0.186,0.544,0.186,0.596c0,0.261-0.192,0.537-0.576,0.83s-0.833,0.55-1.348,0.771s-0.915,0.332-1.201,0.332
		c-0.481,0-0.723-0.364-0.723-1.094c0-1.511,0.774-3.613,2.324-6.309c-2.058,0.169-4.421,0.476-7.09,0.918
		c-0.769,1.016-1.465,1.979-2.09,2.891s-1.136,1.68-1.533,2.305s-0.69,1.042-0.879,1.25S76.622,50.71,76.4,50.71
		c-0.378,0-0.696-0.163-0.957-0.488c-0.117-0.13-0.192-0.261-0.225-0.391s-0.049-0.273-0.049-0.43s0-0.293,0-0.41
		c0-0.156,0.085-0.384,0.254-0.684s0.573-0.896,1.211-1.787s1.106-1.565,1.406-2.021c-0.339,0.039-0.774,0.059-1.309,0.059
		c-0.677,0-1.228-0.124-1.65-0.371s-0.635-0.554-0.635-0.918c0-0.417,0.11-0.862,0.332-1.338s0.508-0.872,0.859-1.191
		s0.703-0.479,1.055-0.479c0.234,0,0.515,0.071,0.84,0.215l5.039-1.25c2.812-3.047,4.909-5.456,6.289-7.227
		c1.38-1.771,2.07-2.91,2.07-3.418c0-0.286-0.078-0.524-0.234-0.713c-0.156-0.188-0.374-0.335-0.654-0.439
		c-0.28-0.104-0.603-0.156-0.967-0.156c-0.43,0-1.11,0.117-2.041,0.352s-2.041,0.58-3.33,1.035
		c-1.289,0.456-2.897,1.087-4.824,1.895c-1.433,0.586-2.148,0.957-2.148,1.113c0,0.183,0.098,0.3,0.293,0.352
		c0.195,0.052,0.446,0.091,0.752,0.117c0.306,0.026,0.459,0.072,0.459,0.137c0,0.052-0.075,0.124-0.225,0.215
		C77.862,32.579,77.657,32.689,77.396,32.819z"/>
</g>
</svg>
